<svg width="167" height="43" viewBox="0 0 167 43" fill="none" xmlns="http://www.w3.org/2000/svg">
<path d="M0 0.560133H10.6825L21.9652 28.0867H22.4453L33.728 0.560133H44.4105V41.5298H36.0085V14.8635H35.6684L25.0659 41.3298H19.3446L8.74207 14.7635H8.40199V41.5298H0V0.560133Z" fill="white"/>
<path d="M58.6089 41.5298H49.3267L63.47 0.560133H74.6327L88.756 41.5298H79.4738L69.2114 9.92235H68.8913L58.6089 41.5298ZM49.3267 41.5298L63.1752 29.8791C66.5108 27.0728 71.378 27.0604 74.7279 29.8496L88.756 41.5298H79.4738L74.7262 37.6616C71.4161 34.9647 66.6666 34.9647 63.3565 37.6616L58.6089 41.5298H49.3267Z" fill="white"/>
<path d="M127.955 0.560133V41.5298H120.474L102.649 15.7437H102.349V41.5298H93.6872V0.560133H101.289L118.973 26.3262H119.333V0.560133H127.955Z" fill="white"/>
<path d="M157.337 12.3429C157.177 10.7292 156.49 9.47558 155.277 8.58203C154.063 7.68849 152.416 7.24171 150.336 7.24171C148.922 7.24171 147.728 7.44176 146.755 7.84186C145.781 8.22862 145.034 8.76874 144.514 9.46224C144.007 10.1557 143.754 10.9426 143.754 11.8228C143.727 12.5563 143.881 13.1965 144.214 13.7433C144.561 14.2901 145.034 14.7635 145.634 15.1636C146.235 15.5503 146.928 15.8904 147.715 16.1838C148.502 16.4639 149.342 16.704 150.236 16.904L153.916 17.7842C155.704 18.1843 157.344 18.7178 158.838 19.3846C160.331 20.0514 161.625 20.8716 162.719 21.8452C163.812 22.8187 164.659 23.9657 165.259 25.286C165.873 26.6063 166.186 28.12 166.199 29.8271C166.186 32.3343 165.546 34.5082 164.279 36.3486C163.025 38.1757 161.211 39.596 158.838 40.6096C156.477 41.6099 153.63 42.11 150.296 42.11C146.988 42.11 144.107 41.6032 141.654 40.5896C139.213 39.576 137.306 38.0757 135.932 36.0885C134.572 34.0881 133.858 31.6142 133.792 28.6668H142.174C142.267 30.0404 142.66 31.1874 143.354 32.1076C144.061 33.0145 145.001 33.7013 146.175 34.1681C147.362 34.6215 148.702 34.8483 150.196 34.8483C151.663 34.8483 152.936 34.6349 154.016 34.2081C155.11 33.7813 155.957 33.1879 156.557 32.4277C157.157 31.6675 157.457 30.794 157.457 29.8071C157.457 28.8868 157.184 28.1133 156.637 27.4865C156.104 26.8597 155.317 26.3262 154.277 25.8861C153.25 25.446 151.989 25.0459 150.496 24.6858L146.035 23.5656C142.58 22.7254 139.853 21.4117 137.853 19.6246C135.852 17.8376 134.859 15.4303 134.872 12.4029C134.859 9.92235 135.519 7.75517 136.852 5.9014C138.199 4.04763 140.046 2.60062 142.394 1.56037C144.741 0.520123 147.408 0 150.396 0C153.436 0 156.09 0.520123 158.357 1.56037C160.638 2.60062 162.412 4.04763 163.679 5.9014C164.946 7.75517 165.599 9.90234 165.639 12.3429H157.337Z" fill="white"/>
</svg>
